<?xml version="1.0" encoding="UTF-8"?>
<svg xmlns="http://www.w3.org/2000/svg"
     xmlns:xlink="http://www.w3.org/1999/xlink"
     xmlns:gadfly="http://www.gadflyjl.org/ns"
     version="1.2"
     width="177.8mm" height="101.6mm" viewBox="0 0 177.8 101.6"
     stroke="none"
     fill="#000000"
     stroke-width="0.3"
     font-size="3.88"
>
<defs>
  <marker id="arrow" markerWidth="15" markerHeight="7" refX="5" refY="3.5" orient="auto" markerUnits="strokeWidth">
    <path d="M0,0 L15,3.5 L0,7 z" stroke="context-stroke" fill="context-stroke"/>
  </marker>
</defs>
<g class="plotroot xscalable yscalable" id="img-14e6323e-1">
  <g font-size="3.88" font-family="'PT Sans','Helvetica Neue','Helvetica',sans-serif" fill="#564A55" stroke="#000000" stroke-opacity="0.000" id="img-14e6323e-2">
    <g transform="translate(95.26,89.99)">
      <g class="primitive">
        <text text-anchor="middle" dy="0.6em">Parametric bootstrap estimates of β₁</text>
      </g>
    </g>
  </g>
  <g class="guide xlabels" font-size="2.82" font-family="'PT Sans Caption','Helvetica Neue','Helvetica',sans-serif" fill="#6C606B" id="img-14e6323e-3">
    <g transform="translate(19.71,83.32)">
      <g class="primitive">
        <text text-anchor="middle" dy="0.6em">-5.0×10³</text>
      </g>
    </g>
    <g transform="translate(57.48,83.32)">
      <g class="primitive">
        <text text-anchor="middle" dy="0.6em">0</text>
      </g>
    </g>
    <g transform="translate(95.26,83.32)">
      <g class="primitive">
        <text text-anchor="middle" dy="0.6em">5.0×10³</text>
      </g>
    </g>
    <g transform="translate(133.03,83.32)">
      <g class="primitive">
        <text text-anchor="middle" dy="0.6em">1.0×10⁴</text>
      </g>
    </g>
    <g transform="translate(170.8,83.32)">
      <g class="primitive">
        <text text-anchor="middle" dy="0.6em">1.5×10⁴</text>
      </g>
    </g>
  </g>
  <g clip-path="url(#img-14e6323e-4)">
    <g id="img-14e6323e-5">
      <g pointer-events="visible" fill="#000000" fill-opacity="0.000" stroke="#000000" stroke-opacity="0.000" class="guide background" id="img-14e6323e-6">
        <g transform="translate(95.26,43.66)" id="img-14e6323e-7">
          <path d="M-77.54,-38.66 L 77.54 -38.66 77.54 38.66 -77.54 38.66 z" class="primitive"/>
        </g>
      </g>
      <g class="guide ygridlines xfixed" stroke-dasharray="0.5,0.5" stroke-width="0.2" stroke="#D0D0E0" id="img-14e6323e-8">
        <g transform="translate(95.26,80.32)" id="img-14e6323e-9">
          <path fill="none" d="M-77.54,0 L 77.54 0" class="primitive"/>
        </g>
        <g transform="translate(95.26,55.88)" id="img-14e6323e-10">
          <path fill="none" d="M-77.54,0 L 77.54 0" class="primitive"/>
        </g>
        <g transform="translate(95.26,31.44)" id="img-14e6323e-11">
          <path fill="none" d="M-77.54,0 L 77.54 0" class="primitive"/>
        </g>
        <g transform="translate(95.26,7)" id="img-14e6323e-12">
          <path fill="none" d="M-77.54,0 L 77.54 0" class="primitive"/>
        </g>
      </g>
      <g class="guide xgridlines yfixed" stroke-dasharray="0.5,0.5" stroke-width="0.2" stroke="#D0D0E0" id="img-14e6323e-13">
        <g transform="translate(19.71,43.66)" id="img-14e6323e-14">
          <path fill="none" d="M0,-38.66 L 0 38.66" class="primitive"/>
        </g>
        <g transform="translate(57.48,43.66)" id="img-14e6323e-15">
          <path fill="none" d="M0,-38.66 L 0 38.66" class="primitive"/>
        </g>
        <g transform="translate(95.26,43.66)" id="img-14e6323e-16">
          <path fill="none" d="M0,-38.66 L 0 38.66" class="primitive"/>
        </g>
        <g transform="translate(133.03,43.66)" id="img-14e6323e-17">
          <path fill="none" d="M0,-38.66 L 0 38.66" class="primitive"/>
        </g>
        <g transform="translate(170.8,43.66)" id="img-14e6323e-18">
          <path fill="none" d="M0,-38.66 L 0 38.66" class="primitive"/>
        </g>
      </g>
      <g class="plotpanel" id="img-14e6323e-19">
        <metadata>
          <boundingbox value="17.71333333333334mm 5.0mm 155.08666666666664mm 77.315mm"/>
          <unitbox value="-5264.748709350042 0.0001540919320739276 20529.497418700084 -0.00015818386414785516"/>
        </metadata>
        <g stroke-width="0.3" fill="#000000" fill-opacity="0.000" class="geometry" id="img-14e6323e-20">
          <g class="color_LCHab{Float32}(70.0f0,60.0f0,240.0f0)" stroke-dasharray="none" stroke="#00BFFF" id="img-14e6323e-21">
            <g transform="translate(95.26,43.69)" id="img-14e6323e-22">
              <path fill="none" d="M-50.21,36.62 L -49.82 36.62 -49.42 36.62 -49.03 36.62 -48.64 36.61 -48.24 36.61 -47.85 36.59 -47.45 36.58 -47.06 36.55 -46.67 36.52 -46.27 36.47 -45.88 36.4 -45.49 36.3 -45.09 36.17 -44.7 35.98 -44.3 35.74 -43.91 35.43 -43.52 35.03 -43.12 34.53 -42.73 33.9 -42.33 33.13 -41.94 32.21 -41.55 31.11 -41.15 29.84 -40.76 28.38 -40.37 26.73 -39.97 24.89 -39.58 22.89 -39.18 20.73 -38.79 18.45 -38.4 16.07 -38 13.63 -37.61 11.17 -37.22 8.72 -36.82 6.33 -36.43 4.03 -36.03 1.85 -35.64 -0.19 -35.25 -2.05 -34.85 -3.73 -34.46 -5.23 -34.06 -6.53 -33.67 -7.66 -33.28 -8.61 -32.88 -9.4 -32.49 -10.05 -32.1 -10.58 -31.7 -11 -31.31 -11.32 -30.91 -11.58 -30.52 -11.77 -30.13 -11.91 -29.73 -12.01 -29.34 -12.09 -28.95 -12.14 -28.55 -12.18 -28.16 -12.2 -27.76 -12.22 -27.37 -12.23 -26.98 -12.24 -26.58 -12.24 -26.19 -12.25 -25.79 -12.25 -25.4 -12.25 -25.01 -12.25 -24.61 -12.25 -24.22 -12.25 -23.83 -12.25 -23.43 -12.25 -23.04 -12.25 -22.64 -12.25 -22.25 -12.25 -21.86 -12.25 -21.46 -12.25 -21.07 -12.25 -20.68 -12.25 -20.28 -12.25 -19.89 -12.25 -19.49 -12.25 -19.1 -12.25 -18.71 -12.25 -18.31 -12.25 -17.92 -12.25 -17.52 -12.25 -17.13 -12.25 -16.74 -12.25 -16.34 -12.25 -15.95 -12.25 -15.56 -12.25 -15.16 -12.25 -14.77 -12.25 -14.37 -12.25 -13.98 -12.25 -13.59 -12.25 -13.19 -12.25 -12.8 -12.25 -12.41 -12.25 -12.01 -12.25 -11.62 -12.25 -11.22 -12.25 -10.83 -12.25 -10.44 -12.25 -10.04 -12.25 -9.65 -12.25 -9.25 -12.25 -8.86 -12.25 -8.47 -12.25 -8.07 -12.25 -7.68 -12.25 -7.29 -12.25 -6.89 -12.25 -6.5 -12.25 -6.1 -12.25 -5.71 -12.25 -5.32 -12.25 -4.92 -12.25 -4.53 -12.25 -4.14 -12.25 -3.74 -12.25 -3.35 -12.25 -2.95 -12.25 -2.56 -12.25 -2.17 -12.25 -1.77 -12.25 -1.38 -12.25 -0.98 -12.25 -0.59 -12.25 -0.2 -12.25 0.2 -12.25 0.59 -12.25 0.98 -12.25 1.38 -12.25 1.77 -12.25 2.17 -12.25 2.56 -12.25 2.95 -12.25 3.35 -12.25 3.74 -12.25 4.14 -12.25 4.53 -12.25 4.92 -12.25 5.32 -12.25 5.71 -12.25 6.1 -12.25 6.5 -12.25 6.89 -12.25 7.29 -12.25 7.68 -12.25 8.07 -12.25 8.47 -12.25 8.86 -12.25 9.25 -12.25 9.65 -12.25 10.04 -12.25 10.44 -12.25 10.83 -12.25 11.22 -12.25 11.62 -12.25 12.01 -12.25 12.41 -12.25 12.8 -12.25 13.19 -12.25 13.59 -12.25 13.98 -12.25 14.37 -12.25 14.77 -12.25 15.16 -12.25 15.56 -12.25 15.95 -12.25 16.34 -12.25 16.74 -12.25 17.13 -12.25 17.52 -12.25 17.92 -12.25 18.31 -12.25 18.71 -12.25 19.1 -12.25 19.49 -12.25 19.89 -12.25 20.28 -12.25 20.68 -12.25 21.07 -12.25 21.46 -12.25 21.86 -12.25 22.25 -12.25 22.64 -12.25 23.04 -12.25 23.43 -12.25 23.83 -12.25 24.22 -12.25 24.61 -12.25 25.01 -12.25 25.4 -12.25 25.79 -12.25 26.19 -12.25 26.58 -12.24 26.98 -12.24 27.37 -12.23 27.76 -12.22 28.16 -12.2 28.55 -12.18 28.95 -12.14 29.34 -12.09 29.73 -12.01 30.13 -11.91 30.52 -11.77 30.91 -11.58 31.31 -11.32 31.7 -11 32.1 -10.58 32.49 -10.05 32.88 -9.4 33.28 -8.61 33.67 -7.66 34.06 -6.53 34.46 -5.23 34.85 -3.73 35.25 -2.05 35.64 -0.19 36.03 1.85 36.43 4.03 36.82 6.33 37.22 8.72 37.61 11.17 38 13.63 38.4 16.07 38.79 18.45 39.18 20.73 39.58 22.89 39.97 24.89 40.37 26.73 40.76 28.38 41.15 29.84 41.55 31.11 41.94 32.21 42.33 33.13 42.73 33.9 43.12 34.53 43.52 35.03 43.91 35.43 44.3 35.74 44.7 35.98 45.09 36.17 45.49 36.3 45.88 36.4 46.27 36.47 46.67 36.52 47.06 36.55 47.45 36.58 47.85 36.59 48.24 36.61 48.64 36.61 49.03 36.62 49.42 36.62 49.82 36.62 50.21 36.62" class="primitive"/>
            </g>
          </g>
        </g>
      </g>
    </g>
  </g>
  <g class="guide ylabels" font-size="2.82" font-family="'PT Sans Caption','Helvetica Neue','Helvetica',sans-serif" fill="#6C606B" id="img-14e6323e-23">
    <g transform="translate(16.71,80.32)" id="img-14e6323e-24">
      <g class="primitive">
        <text text-anchor="end" dy="0.35em">0.00000</text>
      </g>
    </g>
    <g transform="translate(16.71,55.88)" id="img-14e6323e-25">
      <g class="primitive">
        <text text-anchor="end" dy="0.35em">0.00005</text>
      </g>
    </g>
    <g transform="translate(16.71,31.44)" id="img-14e6323e-26">
      <g class="primitive">
        <text text-anchor="end" dy="0.35em">0.00010</text>
      </g>
    </g>
    <g transform="translate(16.71,7)" id="img-14e6323e-27">
      <g class="primitive">
        <text text-anchor="end" dy="0.35em">0.00015</text>
      </g>
    </g>
  </g>
</g>
<defs>
  <clipPath id="img-14e6323e-4">
    <path d="M17.71,5 L 172.8 5 172.8 82.32 17.71 82.32" />
  </clipPath>
</defs>
</svg>
