<?xml version="1.0" encoding="UTF-8"?>
<svg xmlns="http://www.w3.org/2000/svg"
     xmlns:xlink="http://www.w3.org/1999/xlink"
     xmlns:gadfly="http://www.gadflyjl.org/ns"
     version="1.2"
     width="177.8mm" height="101.6mm" viewBox="0 0 177.8 101.6"
     stroke="none"
     fill="#000000"
     stroke-width="0.3"
     font-size="3.88"
>
<defs>
  <marker id="arrow" markerWidth="15" markerHeight="7" refX="5" refY="3.5" orient="auto" markerUnits="strokeWidth">
    <path d="M0,0 L15,3.5 L0,7 z" stroke="context-stroke" fill="context-stroke"/>
  </marker>
</defs>
<g class="plotroot xscalable yscalable" id="img-db9c0bd9-1">
  <g font-size="3.88" font-family="'PT Sans','Helvetica Neue','Helvetica',sans-serif" fill="#564A55" stroke="#000000" stroke-opacity="0.000" id="img-db9c0bd9-2">
    <g transform="translate(92.41,89.99)">
      <g class="primitive">
        <text text-anchor="middle" dy="0.6em">Parametric bootstrap samples of correlation of random effects</text>
      </g>
    </g>
  </g>
  <g class="guide xlabels" font-size="2.82" font-family="'PT Sans Caption','Helvetica Neue','Helvetica',sans-serif" fill="#6C606B" id="img-db9c0bd9-3">
    <g transform="translate(14.02,83.32)">
      <g class="primitive">
        <text text-anchor="middle" dy="0.6em">-3</text>
      </g>
    </g>
    <g transform="translate(53.22,83.32)">
      <g class="primitive">
        <text text-anchor="middle" dy="0.6em">-2</text>
      </g>
    </g>
    <g transform="translate(92.41,83.32)">
      <g class="primitive">
        <text text-anchor="middle" dy="0.6em">-1</text>
      </g>
    </g>
    <g transform="translate(131.6,83.32)">
      <g class="primitive">
        <text text-anchor="middle" dy="0.6em">0</text>
      </g>
    </g>
    <g transform="translate(170.8,83.32)">
      <g class="primitive">
        <text text-anchor="middle" dy="0.6em">1</text>
      </g>
    </g>
  </g>
  <g clip-path="url(#img-db9c0bd9-4)">
    <g id="img-db9c0bd9-5">
      <g pointer-events="visible" fill="#000000" fill-opacity="0.000" stroke="#000000" stroke-opacity="0.000" class="guide background" id="img-db9c0bd9-6">
        <g transform="translate(92.41,43.66)" id="img-db9c0bd9-7">
          <path d="M-80.39,-38.66 L 80.39 -38.66 80.39 38.66 -80.39 38.66 z" class="primitive"/>
        </g>
      </g>
      <g class="guide ygridlines xfixed" stroke-dasharray="0.5,0.5" stroke-width="0.2" stroke="#D0D0E0" id="img-db9c0bd9-8">
        <g transform="translate(92.41,80.32)" id="img-db9c0bd9-9">
          <path fill="none" d="M-80.39,0 L 80.39 0" class="primitive"/>
        </g>
        <g transform="translate(92.41,61.99)" id="img-db9c0bd9-10">
          <path fill="none" d="M-80.39,0 L 80.39 0" class="primitive"/>
        </g>
        <g transform="translate(92.41,43.66)" id="img-db9c0bd9-11">
          <path fill="none" d="M-80.39,0 L 80.39 0" class="primitive"/>
        </g>
        <g transform="translate(92.41,25.33)" id="img-db9c0bd9-12">
          <path fill="none" d="M-80.39,0 L 80.39 0" class="primitive"/>
        </g>
        <g transform="translate(92.41,7)" id="img-db9c0bd9-13">
          <path fill="none" d="M-80.39,0 L 80.39 0" class="primitive"/>
        </g>
      </g>
      <g class="guide xgridlines yfixed" stroke-dasharray="0.5,0.5" stroke-width="0.2" stroke="#D0D0E0" id="img-db9c0bd9-14">
        <g transform="translate(14.02,43.66)" id="img-db9c0bd9-15">
          <path fill="none" d="M0,-38.66 L 0 38.66" class="primitive"/>
        </g>
        <g transform="translate(53.22,43.66)" id="img-db9c0bd9-16">
          <path fill="none" d="M0,-38.66 L 0 38.66" class="primitive"/>
        </g>
        <g transform="translate(92.41,43.66)" id="img-db9c0bd9-17">
          <path fill="none" d="M0,-38.66 L 0 38.66" class="primitive"/>
        </g>
        <g transform="translate(131.6,43.66)" id="img-db9c0bd9-18">
          <path fill="none" d="M0,-38.66 L 0 38.66" class="primitive"/>
        </g>
        <g transform="translate(170.8,43.66)" id="img-db9c0bd9-19">
          <path fill="none" d="M0,-38.66 L 0 38.66" class="primitive"/>
        </g>
      </g>
      <g class="plotpanel" id="img-db9c0bd9-20">
        <metadata>
          <boundingbox value="12.02000000000001mm 5.0mm 160.77999999999997mm 77.315mm"/>
          <unitbox value="-3.0510269166985586 410.91181886380684 4.102053833397117 -421.82363772761374"/>
        </metadata>
        <g shape-rendering="crispEdges" stroke-width="0.3" id="img-db9c0bd9-21">
          <g stroke="#000000" stroke-opacity="0.000" class="geometry" fill="#00BFFF" id="img-db9c0bd9-22">
            <g transform="translate(92.67,79.58)" id="img-db9c0bd9-23">
              <path d="M-0.29,-0.73 L 0.29 -0.73 0.29 0.73 -0.29 0.73 z" class="primitive"/>
            </g>
            <g transform="translate(93.19,80.32)" id="img-db9c0bd9-24">
              <path d="M-0.29,-0 L 0.29 -0 0.29 0 -0.29 0 z" class="primitive"/>
            </g>
            <g transform="translate(93.72,80.32)" id="img-db9c0bd9-25">
              <path d="M-0.29,-0 L 0.29 -0 0.29 0 -0.29 0 z" class="primitive"/>
            </g>
            <g transform="translate(94.24,80.32)" id="img-db9c0bd9-26">
              <path d="M-0.29,-0 L 0.29 -0 0.29 0 -0.29 0 z" class="primitive"/>
            </g>
            <g transform="translate(94.76,80.32)" id="img-db9c0bd9-27">
              <path d="M-0.29,-0 L 0.29 -0 0.29 0 -0.29 0 z" class="primitive"/>
            </g>
            <g transform="translate(95.28,80.22)" id="img-db9c0bd9-28">
              <path d="M-0.29,-0.09 L 0.29 -0.09 0.29 0.09 -0.29 0.09 z" class="primitive"/>
            </g>
            <g transform="translate(95.81,80.32)" id="img-db9c0bd9-29">
              <path d="M-0.29,-0 L 0.29 -0 0.29 0 -0.29 0 z" class="primitive"/>
            </g>
            <g transform="translate(96.33,80.32)" id="img-db9c0bd9-30">
              <path d="M-0.29,-0 L 0.29 -0 0.29 0 -0.29 0 z" class="primitive"/>
            </g>
            <g transform="translate(96.85,80.32)" id="img-db9c0bd9-31">
              <path d="M-0.29,-0 L 0.29 -0 0.29 0 -0.29 0 z" class="primitive"/>
            </g>
            <g transform="translate(97.37,80.22)" id="img-db9c0bd9-32">
              <path d="M-0.29,-0.09 L 0.29 -0.09 0.29 0.09 -0.29 0.09 z" class="primitive"/>
            </g>
            <g transform="translate(97.9,80.22)" id="img-db9c0bd9-33">
              <path d="M-0.29,-0.09 L 0.29 -0.09 0.29 0.09 -0.29 0.09 z" class="primitive"/>
            </g>
            <g transform="translate(98.42,80.32)" id="img-db9c0bd9-34">
              <path d="M-0.29,-0 L 0.29 -0 0.29 0 -0.29 0 z" class="primitive"/>
            </g>
            <g transform="translate(98.94,80.32)" id="img-db9c0bd9-35">
              <path d="M-0.29,-0 L 0.29 -0 0.29 0 -0.29 0 z" class="primitive"/>
            </g>
            <g transform="translate(99.47,80.32)" id="img-db9c0bd9-36">
              <path d="M-0.29,-0 L 0.29 -0 0.29 0 -0.29 0 z" class="primitive"/>
            </g>
            <g transform="translate(99.99,80.22)" id="img-db9c0bd9-37">
              <path d="M-0.29,-0.09 L 0.29 -0.09 0.29 0.09 -0.29 0.09 z" class="primitive"/>
            </g>
            <g transform="translate(100.51,80.32)" id="img-db9c0bd9-38">
              <path d="M-0.29,-0 L 0.29 -0 0.29 0 -0.29 0 z" class="primitive"/>
            </g>
            <g transform="translate(101.03,79.95)" id="img-db9c0bd9-39">
              <path d="M-0.29,-0.37 L 0.29 -0.37 0.29 0.37 -0.29 0.37 z" class="primitive"/>
            </g>
            <g transform="translate(101.56,80.04)" id="img-db9c0bd9-40">
              <path d="M-0.29,-0.27 L 0.29 -0.27 0.29 0.27 -0.29 0.27 z" class="primitive"/>
            </g>
            <g transform="translate(102.08,79.77)" id="img-db9c0bd9-41">
              <path d="M-0.29,-0.55 L 0.29 -0.55 0.29 0.55 -0.29 0.55 z" class="primitive"/>
            </g>
            <g transform="translate(102.6,80.22)" id="img-db9c0bd9-42">
              <path d="M-0.29,-0.09 L 0.29 -0.09 0.29 0.09 -0.29 0.09 z" class="primitive"/>
            </g>
            <g transform="translate(103.12,80.04)" id="img-db9c0bd9-43">
              <path d="M-0.29,-0.27 L 0.29 -0.27 0.29 0.27 -0.29 0.27 z" class="primitive"/>
            </g>
            <g transform="translate(103.65,79.86)" id="img-db9c0bd9-44">
              <path d="M-0.29,-0.46 L 0.29 -0.46 0.29 0.46 -0.29 0.46 z" class="primitive"/>
            </g>
            <g transform="translate(104.17,80.04)" id="img-db9c0bd9-45">
              <path d="M-0.29,-0.27 L 0.29 -0.27 0.29 0.27 -0.29 0.27 z" class="primitive"/>
            </g>
            <g transform="translate(104.69,80.04)" id="img-db9c0bd9-46">
              <path d="M-0.29,-0.27 L 0.29 -0.27 0.29 0.27 -0.29 0.27 z" class="primitive"/>
            </g>
            <g transform="translate(105.21,79.49)" id="img-db9c0bd9-47">
              <path d="M-0.29,-0.82 L 0.29 -0.82 0.29 0.82 -0.29 0.82 z" class="primitive"/>
            </g>
            <g transform="translate(105.74,79.86)" id="img-db9c0bd9-48">
              <path d="M-0.29,-0.46 L 0.29 -0.46 0.29 0.46 -0.29 0.46 z" class="primitive"/>
            </g>
            <g transform="translate(106.26,79.58)" id="img-db9c0bd9-49">
              <path d="M-0.29,-0.73 L 0.29 -0.73 0.29 0.73 -0.29 0.73 z" class="primitive"/>
            </g>
            <g transform="translate(106.78,78.67)" id="img-db9c0bd9-50">
              <path d="M-0.29,-1.65 L 0.29 -1.65 0.29 1.65 -0.29 1.65 z" class="primitive"/>
            </g>
            <g transform="translate(107.3,79.49)" id="img-db9c0bd9-51">
              <path d="M-0.29,-0.82 L 0.29 -0.82 0.29 0.82 -0.29 0.82 z" class="primitive"/>
            </g>
            <g transform="translate(107.83,79.31)" id="img-db9c0bd9-52">
              <path d="M-0.29,-1.01 L 0.29 -1.01 0.29 1.01 -0.29 1.01 z" class="primitive"/>
            </g>
            <g transform="translate(108.35,79.22)" id="img-db9c0bd9-53">
              <path d="M-0.29,-1.1 L 0.29 -1.1 0.29 1.1 -0.29 1.1 z" class="primitive"/>
            </g>
            <g transform="translate(108.87,78.57)" id="img-db9c0bd9-54">
              <path d="M-0.29,-1.74 L 0.29 -1.74 0.29 1.74 -0.29 1.74 z" class="primitive"/>
            </g>
            <g transform="translate(109.39,78.85)" id="img-db9c0bd9-55">
              <path d="M-0.29,-1.47 L 0.29 -1.47 0.29 1.47 -0.29 1.47 z" class="primitive"/>
            </g>
            <g transform="translate(109.92,78.21)" id="img-db9c0bd9-56">
              <path d="M-0.29,-2.11 L 0.29 -2.11 0.29 2.11 -0.29 2.11 z" class="primitive"/>
            </g>
            <g transform="translate(110.44,78.12)" id="img-db9c0bd9-57">
              <path d="M-0.29,-2.2 L 0.29 -2.2 0.29 2.2 -0.29 2.2 z" class="primitive"/>
            </g>
            <g transform="translate(110.96,77.84)" id="img-db9c0bd9-58">
              <path d="M-0.29,-2.47 L 0.29 -2.47 0.29 2.47 -0.29 2.47 z" class="primitive"/>
            </g>
            <g transform="translate(111.48,77.57)" id="img-db9c0bd9-59">
              <path d="M-0.29,-2.75 L 0.29 -2.75 0.29 2.75 -0.29 2.75 z" class="primitive"/>
            </g>
            <g transform="translate(112.01,77.11)" id="img-db9c0bd9-60">
              <path d="M-0.29,-3.21 L 0.29 -3.21 0.29 3.21 -0.29 3.21 z" class="primitive"/>
            </g>
            <g transform="translate(112.53,77.38)" id="img-db9c0bd9-61">
              <path d="M-0.29,-2.93 L 0.29 -2.93 0.29 2.93 -0.29 2.93 z" class="primitive"/>
            </g>
            <g transform="translate(113.05,75.37)" id="img-db9c0bd9-62">
              <path d="M-0.29,-4.95 L 0.29 -4.95 0.29 4.95 -0.29 4.95 z" class="primitive"/>
            </g>
            <g transform="translate(113.58,76.19)" id="img-db9c0bd9-63">
              <path d="M-0.29,-4.12 L 0.29 -4.12 0.29 4.12 -0.29 4.12 z" class="primitive"/>
            </g>
            <g transform="translate(114.1,76.28)" id="img-db9c0bd9-64">
              <path d="M-0.29,-4.03 L 0.29 -4.03 0.29 4.03 -0.29 4.03 z" class="primitive"/>
            </g>
            <g transform="translate(114.62,76.74)" id="img-db9c0bd9-65">
              <path d="M-0.29,-3.57 L 0.29 -3.57 0.29 3.57 -0.29 3.57 z" class="primitive"/>
            </g>
            <g transform="translate(115.14,74.54)" id="img-db9c0bd9-66">
              <path d="M-0.29,-5.77 L 0.29 -5.77 0.29 5.77 -0.29 5.77 z" class="primitive"/>
            </g>
            <g transform="translate(115.67,74.82)" id="img-db9c0bd9-67">
              <path d="M-0.29,-5.5 L 0.29 -5.5 0.29 5.5 -0.29 5.5 z" class="primitive"/>
            </g>
            <g transform="translate(116.19,74.91)" id="img-db9c0bd9-68">
              <path d="M-0.29,-5.41 L 0.29 -5.41 0.29 5.41 -0.29 5.41 z" class="primitive"/>
            </g>
            <g transform="translate(116.71,74.36)" id="img-db9c0bd9-69">
              <path d="M-0.29,-5.96 L 0.29 -5.96 0.29 5.96 -0.29 5.96 z" class="primitive"/>
            </g>
            <g transform="translate(117.23,74.63)" id="img-db9c0bd9-70">
              <path d="M-0.29,-5.68 L 0.29 -5.68 0.29 5.68 -0.29 5.68 z" class="primitive"/>
            </g>
            <g transform="translate(117.76,74.54)" id="img-db9c0bd9-71">
              <path d="M-0.29,-5.77 L 0.29 -5.77 0.29 5.77 -0.29 5.77 z" class="primitive"/>
            </g>
            <g transform="translate(118.28,73.17)" id="img-db9c0bd9-72">
              <path d="M-0.29,-7.15 L 0.29 -7.15 0.29 7.15 -0.29 7.15 z" class="primitive"/>
            </g>
            <g transform="translate(118.8,72.62)" id="img-db9c0bd9-73">
              <path d="M-0.29,-7.7 L 0.29 -7.7 0.29 7.7 -0.29 7.7 z" class="primitive"/>
            </g>
            <g transform="translate(119.32,72.16)" id="img-db9c0bd9-74">
              <path d="M-0.29,-8.16 L 0.29 -8.16 0.29 8.16 -0.29 8.16 z" class="primitive"/>
            </g>
            <g transform="translate(119.85,72.71)" id="img-db9c0bd9-75">
              <path d="M-0.29,-7.61 L 0.29 -7.61 0.29 7.61 -0.29 7.61 z" class="primitive"/>
            </g>
            <g transform="translate(120.37,72.53)" id="img-db9c0bd9-76">
              <path d="M-0.29,-7.79 L 0.29 -7.79 0.29 7.79 -0.29 7.79 z" class="primitive"/>
            </g>
            <g transform="translate(120.89,71.24)" id="img-db9c0bd9-77">
              <path d="M-0.29,-9.07 L 0.29 -9.07 0.29 9.07 -0.29 9.07 z" class="primitive"/>
            </g>
            <g transform="translate(121.41,71.61)" id="img-db9c0bd9-78">
              <path d="M-0.29,-8.71 L 0.29 -8.71 0.29 8.71 -0.29 8.71 z" class="primitive"/>
            </g>
            <g transform="translate(121.94,71.24)" id="img-db9c0bd9-79">
              <path d="M-0.29,-9.07 L 0.29 -9.07 0.29 9.07 -0.29 9.07 z" class="primitive"/>
            </g>
            <g transform="translate(122.46,71.43)" id="img-db9c0bd9-80">
              <path d="M-0.29,-8.89 L 0.29 -8.89 0.29 8.89 -0.29 8.89 z" class="primitive"/>
            </g>
            <g transform="translate(122.98,71.43)" id="img-db9c0bd9-81">
              <path d="M-0.29,-8.89 L 0.29 -8.89 0.29 8.89 -0.29 8.89 z" class="primitive"/>
            </g>
            <g transform="translate(123.5,70.05)" id="img-db9c0bd9-82">
              <path d="M-0.29,-10.26 L 0.29 -10.26 0.29 10.26 -0.29 10.26 z" class="primitive"/>
            </g>
            <g transform="translate(124.03,70.97)" id="img-db9c0bd9-83">
              <path d="M-0.29,-9.35 L 0.29 -9.35 0.29 9.35 -0.29 9.35 z" class="primitive"/>
            </g>
            <g transform="translate(124.55,70.33)" id="img-db9c0bd9-84">
              <path d="M-0.29,-9.99 L 0.29 -9.99 0.29 9.99 -0.29 9.99 z" class="primitive"/>
            </g>
            <g transform="translate(125.07,68.22)" id="img-db9c0bd9-85">
              <path d="M-0.29,-12.1 L 0.29 -12.1 0.29 12.1 -0.29 12.1 z" class="primitive"/>
            </g>
            <g transform="translate(125.6,70.42)" id="img-db9c0bd9-86">
              <path d="M-0.29,-9.9 L 0.29 -9.9 0.29 9.9 -0.29 9.9 z" class="primitive"/>
            </g>
            <g transform="translate(126.12,69.32)" id="img-db9c0bd9-87">
              <path d="M-0.29,-11 L 0.29 -11 0.29 11 -0.29 11 z" class="primitive"/>
            </g>
            <g transform="translate(126.64,69.59)" id="img-db9c0bd9-88">
              <path d="M-0.29,-10.72 L 0.29 -10.72 0.29 10.72 -0.29 10.72 z" class="primitive"/>
            </g>
            <g transform="translate(127.16,68.49)" id="img-db9c0bd9-89">
              <path d="M-0.29,-11.82 L 0.29 -11.82 0.29 11.82 -0.29 11.82 z" class="primitive"/>
            </g>
            <g transform="translate(127.69,69.87)" id="img-db9c0bd9-90">
              <path d="M-0.29,-10.45 L 0.29 -10.45 0.29 10.45 -0.29 10.45 z" class="primitive"/>
            </g>
            <g transform="translate(128.21,67.48)" id="img-db9c0bd9-91">
              <path d="M-0.29,-12.83 L 0.29 -12.83 0.29 12.83 -0.29 12.83 z" class="primitive"/>
            </g>
            <g transform="translate(128.73,66.84)" id="img-db9c0bd9-92">
              <path d="M-0.29,-13.47 L 0.29 -13.47 0.29 13.47 -0.29 13.47 z" class="primitive"/>
            </g>
            <g transform="translate(129.25,67.76)" id="img-db9c0bd9-93">
              <path d="M-0.29,-12.56 L 0.29 -12.56 0.29 12.56 -0.29 12.56 z" class="primitive"/>
            </g>
            <g transform="translate(129.78,68.4)" id="img-db9c0bd9-94">
              <path d="M-0.29,-11.91 L 0.29 -11.91 0.29 11.91 -0.29 11.91 z" class="primitive"/>
            </g>
            <g transform="translate(130.3,68.31)" id="img-db9c0bd9-95">
              <path d="M-0.29,-12.01 L 0.29 -12.01 0.29 12.01 -0.29 12.01 z" class="primitive"/>
            </g>
            <g transform="translate(130.82,67.21)" id="img-db9c0bd9-96">
              <path d="M-0.29,-13.11 L 0.29 -13.11 0.29 13.11 -0.29 13.11 z" class="primitive"/>
            </g>
            <g transform="translate(131.34,68.58)" id="img-db9c0bd9-97">
              <path d="M-0.29,-11.73 L 0.29 -11.73 0.29 11.73 -0.29 11.73 z" class="primitive"/>
            </g>
            <g transform="translate(131.87,68.68)" id="img-db9c0bd9-98">
              <path d="M-0.29,-11.64 L 0.29 -11.64 0.29 11.64 -0.29 11.64 z" class="primitive"/>
            </g>
            <g transform="translate(132.39,67.67)" id="img-db9c0bd9-99">
              <path d="M-0.29,-12.65 L 0.29 -12.65 0.29 12.65 -0.29 12.65 z" class="primitive"/>
            </g>
            <g transform="translate(132.91,68.68)" id="img-db9c0bd9-100">
              <path d="M-0.29,-11.64 L 0.29 -11.64 0.29 11.64 -0.29 11.64 z" class="primitive"/>
            </g>
            <g transform="translate(133.43,66.39)" id="img-db9c0bd9-101">
              <path d="M-0.29,-13.93 L 0.29 -13.93 0.29 13.93 -0.29 13.93 z" class="primitive"/>
            </g>
            <g transform="translate(133.96,67.03)" id="img-db9c0bd9-102">
              <path d="M-0.29,-13.29 L 0.29 -13.29 0.29 13.29 -0.29 13.29 z" class="primitive"/>
            </g>
            <g transform="translate(134.48,67.67)" id="img-db9c0bd9-103">
              <path d="M-0.29,-12.65 L 0.29 -12.65 0.29 12.65 -0.29 12.65 z" class="primitive"/>
            </g>
            <g transform="translate(135,67.67)" id="img-db9c0bd9-104">
              <path d="M-0.29,-12.65 L 0.29 -12.65 0.29 12.65 -0.29 12.65 z" class="primitive"/>
            </g>
            <g transform="translate(135.52,67.39)" id="img-db9c0bd9-105">
              <path d="M-0.29,-12.92 L 0.29 -12.92 0.29 12.92 -0.29 12.92 z" class="primitive"/>
            </g>
            <g transform="translate(136.05,68.31)" id="img-db9c0bd9-106">
              <path d="M-0.29,-12.01 L 0.29 -12.01 0.29 12.01 -0.29 12.01 z" class="primitive"/>
            </g>
            <g transform="translate(136.57,67.3)" id="img-db9c0bd9-107">
              <path d="M-0.29,-13.01 L 0.29 -13.01 0.29 13.01 -0.29 13.01 z" class="primitive"/>
            </g>
            <g transform="translate(137.09,68.4)" id="img-db9c0bd9-108">
              <path d="M-0.29,-11.91 L 0.29 -11.91 0.29 11.91 -0.29 11.91 z" class="primitive"/>
            </g>
            <g transform="translate(137.61,68.13)" id="img-db9c0bd9-109">
              <path d="M-0.29,-12.19 L 0.29 -12.19 0.29 12.19 -0.29 12.19 z" class="primitive"/>
            </g>
            <g transform="translate(138.14,67.76)" id="img-db9c0bd9-110">
              <path d="M-0.29,-12.56 L 0.29 -12.56 0.29 12.56 -0.29 12.56 z" class="primitive"/>
            </g>
            <g transform="translate(138.66,68.49)" id="img-db9c0bd9-111">
              <path d="M-0.29,-11.82 L 0.29 -11.82 0.29 11.82 -0.29 11.82 z" class="primitive"/>
            </g>
            <g transform="translate(139.18,67.67)" id="img-db9c0bd9-112">
              <path d="M-0.29,-12.65 L 0.29 -12.65 0.29 12.65 -0.29 12.65 z" class="primitive"/>
            </g>
            <g transform="translate(139.71,68.68)" id="img-db9c0bd9-113">
              <path d="M-0.29,-11.64 L 0.29 -11.64 0.29 11.64 -0.29 11.64 z" class="primitive"/>
            </g>
            <g transform="translate(140.23,67.85)" id="img-db9c0bd9-114">
              <path d="M-0.29,-12.46 L 0.29 -12.46 0.29 12.46 -0.29 12.46 z" class="primitive"/>
            </g>
            <g transform="translate(140.75,67.85)" id="img-db9c0bd9-115">
              <path d="M-0.29,-12.46 L 0.29 -12.46 0.29 12.46 -0.29 12.46 z" class="primitive"/>
            </g>
            <g transform="translate(141.27,70.05)" id="img-db9c0bd9-116">
              <path d="M-0.29,-10.26 L 0.29 -10.26 0.29 10.26 -0.29 10.26 z" class="primitive"/>
            </g>
            <g transform="translate(141.8,70.23)" id="img-db9c0bd9-117">
              <path d="M-0.29,-10.08 L 0.29 -10.08 0.29 10.08 -0.29 10.08 z" class="primitive"/>
            </g>
            <g transform="translate(142.32,70.23)" id="img-db9c0bd9-118">
              <path d="M-0.29,-10.08 L 0.29 -10.08 0.29 10.08 -0.29 10.08 z" class="primitive"/>
            </g>
            <g transform="translate(142.84,70.42)" id="img-db9c0bd9-119">
              <path d="M-0.29,-9.9 L 0.29 -9.9 0.29 9.9 -0.29 9.9 z" class="primitive"/>
            </g>
            <g transform="translate(143.36,68.77)" id="img-db9c0bd9-120">
              <path d="M-0.29,-11.55 L 0.29 -11.55 0.29 11.55 -0.29 11.55 z" class="primitive"/>
            </g>
            <g transform="translate(143.89,70.33)" id="img-db9c0bd9-121">
              <path d="M-0.29,-9.99 L 0.29 -9.99 0.29 9.99 -0.29 9.99 z" class="primitive"/>
            </g>
            <g transform="translate(144.41,69.04)" id="img-db9c0bd9-122">
              <path d="M-0.29,-11.27 L 0.29 -11.27 0.29 11.27 -0.29 11.27 z" class="primitive"/>
            </g>
            <g transform="translate(144.93,70.42)" id="img-db9c0bd9-123">
              <path d="M-0.29,-9.9 L 0.29 -9.9 0.29 9.9 -0.29 9.9 z" class="primitive"/>
            </g>
            <g transform="translate(145.45,70.05)" id="img-db9c0bd9-124">
              <path d="M-0.29,-10.26 L 0.29 -10.26 0.29 10.26 -0.29 10.26 z" class="primitive"/>
            </g>
            <g transform="translate(145.98,70.51)" id="img-db9c0bd9-125">
              <path d="M-0.29,-9.81 L 0.29 -9.81 0.29 9.81 -0.29 9.81 z" class="primitive"/>
            </g>
            <g transform="translate(146.5,71.98)" id="img-db9c0bd9-126">
              <path d="M-0.29,-8.34 L 0.29 -8.34 0.29 8.34 -0.29 8.34 z" class="primitive"/>
            </g>
            <g transform="translate(147.02,71.52)" id="img-db9c0bd9-127">
              <path d="M-0.29,-8.8 L 0.29 -8.8 0.29 8.8 -0.29 8.8 z" class="primitive"/>
            </g>
            <g transform="translate(147.54,71.52)" id="img-db9c0bd9-128">
              <path d="M-0.29,-8.8 L 0.29 -8.8 0.29 8.8 -0.29 8.8 z" class="primitive"/>
            </g>
            <g transform="translate(148.07,70.33)" id="img-db9c0bd9-129">
              <path d="M-0.29,-9.99 L 0.29 -9.99 0.29 9.99 -0.29 9.99 z" class="primitive"/>
            </g>
            <g transform="translate(148.59,71.43)" id="img-db9c0bd9-130">
              <path d="M-0.29,-8.89 L 0.29 -8.89 0.29 8.89 -0.29 8.89 z" class="primitive"/>
            </g>
            <g transform="translate(149.11,71.79)" id="img-db9c0bd9-131">
              <path d="M-0.29,-8.52 L 0.29 -8.52 0.29 8.52 -0.29 8.52 z" class="primitive"/>
            </g>
            <g transform="translate(149.63,72.25)" id="img-db9c0bd9-132">
              <path d="M-0.29,-8.06 L 0.29 -8.06 0.29 8.06 -0.29 8.06 z" class="primitive"/>
            </g>
            <g transform="translate(150.16,72.8)" id="img-db9c0bd9-133">
              <path d="M-0.29,-7.51 L 0.29 -7.51 0.29 7.51 -0.29 7.51 z" class="primitive"/>
            </g>
            <g transform="translate(150.68,72.71)" id="img-db9c0bd9-134">
              <path d="M-0.29,-7.61 L 0.29 -7.61 0.29 7.61 -0.29 7.61 z" class="primitive"/>
            </g>
            <g transform="translate(151.2,74.36)" id="img-db9c0bd9-135">
              <path d="M-0.29,-5.96 L 0.29 -5.96 0.29 5.96 -0.29 5.96 z" class="primitive"/>
            </g>
            <g transform="translate(151.73,72.8)" id="img-db9c0bd9-136">
              <path d="M-0.29,-7.51 L 0.29 -7.51 0.29 7.51 -0.29 7.51 z" class="primitive"/>
            </g>
            <g transform="translate(152.25,73.26)" id="img-db9c0bd9-137">
              <path d="M-0.29,-7.06 L 0.29 -7.06 0.29 7.06 -0.29 7.06 z" class="primitive"/>
            </g>
            <g transform="translate(152.77,72.62)" id="img-db9c0bd9-138">
              <path d="M-0.29,-7.7 L 0.29 -7.7 0.29 7.7 -0.29 7.7 z" class="primitive"/>
            </g>
            <g transform="translate(153.29,73.63)" id="img-db9c0bd9-139">
              <path d="M-0.29,-6.69 L 0.29 -6.69 0.29 6.69 -0.29 6.69 z" class="primitive"/>
            </g>
            <g transform="translate(153.82,75.64)" id="img-db9c0bd9-140">
              <path d="M-0.29,-4.67 L 0.29 -4.67 0.29 4.67 -0.29 4.67 z" class="primitive"/>
            </g>
            <g transform="translate(154.34,74.82)" id="img-db9c0bd9-141">
              <path d="M-0.29,-5.5 L 0.29 -5.5 0.29 5.5 -0.29 5.5 z" class="primitive"/>
            </g>
            <g transform="translate(154.86,74.54)" id="img-db9c0bd9-142">
              <path d="M-0.29,-5.77 L 0.29 -5.77 0.29 5.77 -0.29 5.77 z" class="primitive"/>
            </g>
            <g transform="translate(155.38,76.74)" id="img-db9c0bd9-143">
              <path d="M-0.29,-3.57 L 0.29 -3.57 0.29 3.57 -0.29 3.57 z" class="primitive"/>
            </g>
            <g transform="translate(155.91,74.72)" id="img-db9c0bd9-144">
              <path d="M-0.29,-5.59 L 0.29 -5.59 0.29 5.59 -0.29 5.59 z" class="primitive"/>
            </g>
            <g transform="translate(156.43,74.72)" id="img-db9c0bd9-145">
              <path d="M-0.29,-5.59 L 0.29 -5.59 0.29 5.59 -0.29 5.59 z" class="primitive"/>
            </g>
            <g transform="translate(156.95,75.64)" id="img-db9c0bd9-146">
              <path d="M-0.29,-4.67 L 0.29 -4.67 0.29 4.67 -0.29 4.67 z" class="primitive"/>
            </g>
            <g transform="translate(157.47,75.09)" id="img-db9c0bd9-147">
              <path d="M-0.29,-5.22 L 0.29 -5.22 0.29 5.22 -0.29 5.22 z" class="primitive"/>
            </g>
            <g transform="translate(158,77.29)" id="img-db9c0bd9-148">
              <path d="M-0.29,-3.02 L 0.29 -3.02 0.29 3.02 -0.29 3.02 z" class="primitive"/>
            </g>
            <g transform="translate(158.52,75.73)" id="img-db9c0bd9-149">
              <path d="M-0.29,-4.58 L 0.29 -4.58 0.29 4.58 -0.29 4.58 z" class="primitive"/>
            </g>
            <g transform="translate(159.04,76.37)" id="img-db9c0bd9-150">
              <path d="M-0.29,-3.94 L 0.29 -3.94 0.29 3.94 -0.29 3.94 z" class="primitive"/>
            </g>
            <g transform="translate(159.56,76.65)" id="img-db9c0bd9-151">
              <path d="M-0.29,-3.67 L 0.29 -3.67 0.29 3.67 -0.29 3.67 z" class="primitive"/>
            </g>
            <g transform="translate(160.09,77.47)" id="img-db9c0bd9-152">
              <path d="M-0.29,-2.84 L 0.29 -2.84 0.29 2.84 -0.29 2.84 z" class="primitive"/>
            </g>
            <g transform="translate(160.61,76.1)" id="img-db9c0bd9-153">
              <path d="M-0.29,-4.22 L 0.29 -4.22 0.29 4.22 -0.29 4.22 z" class="primitive"/>
            </g>
            <g transform="translate(161.13,77.38)" id="img-db9c0bd9-154">
              <path d="M-0.29,-2.93 L 0.29 -2.93 0.29 2.93 -0.29 2.93 z" class="primitive"/>
            </g>
            <g transform="translate(161.65,77.02)" id="img-db9c0bd9-155">
              <path d="M-0.29,-3.3 L 0.29 -3.3 0.29 3.3 -0.29 3.3 z" class="primitive"/>
            </g>
            <g transform="translate(162.18,76.37)" id="img-db9c0bd9-156">
              <path d="M-0.29,-3.94 L 0.29 -3.94 0.29 3.94 -0.29 3.94 z" class="primitive"/>
            </g>
            <g transform="translate(162.7,77.02)" id="img-db9c0bd9-157">
              <path d="M-0.29,-3.3 L 0.29 -3.3 0.29 3.3 -0.29 3.3 z" class="primitive"/>
            </g>
            <g transform="translate(163.22,77.57)" id="img-db9c0bd9-158">
              <path d="M-0.29,-2.75 L 0.29 -2.75 0.29 2.75 -0.29 2.75 z" class="primitive"/>
            </g>
            <g transform="translate(163.74,78.21)" id="img-db9c0bd9-159">
              <path d="M-0.29,-2.11 L 0.29 -2.11 0.29 2.11 -0.29 2.11 z" class="primitive"/>
            </g>
            <g transform="translate(164.27,78.21)" id="img-db9c0bd9-160">
              <path d="M-0.29,-2.11 L 0.29 -2.11 0.29 2.11 -0.29 2.11 z" class="primitive"/>
            </g>
            <g transform="translate(164.79,78.21)" id="img-db9c0bd9-161">
              <path d="M-0.29,-2.11 L 0.29 -2.11 0.29 2.11 -0.29 2.11 z" class="primitive"/>
            </g>
            <g transform="translate(165.31,78.94)" id="img-db9c0bd9-162">
              <path d="M-0.29,-1.37 L 0.29 -1.37 0.29 1.37 -0.29 1.37 z" class="primitive"/>
            </g>
            <g transform="translate(165.84,79.31)" id="img-db9c0bd9-163">
              <path d="M-0.29,-1.01 L 0.29 -1.01 0.29 1.01 -0.29 1.01 z" class="primitive"/>
            </g>
            <g transform="translate(166.36,78.67)" id="img-db9c0bd9-164">
              <path d="M-0.29,-1.65 L 0.29 -1.65 0.29 1.65 -0.29 1.65 z" class="primitive"/>
            </g>
            <g transform="translate(166.88,78.12)" id="img-db9c0bd9-165">
              <path d="M-0.29,-2.2 L 0.29 -2.2 0.29 2.2 -0.29 2.2 z" class="primitive"/>
            </g>
            <g transform="translate(167.4,78.12)" id="img-db9c0bd9-166">
              <path d="M-0.29,-2.2 L 0.29 -2.2 0.29 2.2 -0.29 2.2 z" class="primitive"/>
            </g>
            <g transform="translate(167.93,79.12)" id="img-db9c0bd9-167">
              <path d="M-0.29,-1.19 L 0.29 -1.19 0.29 1.19 -0.29 1.19 z" class="primitive"/>
            </g>
            <g transform="translate(168.45,78.3)" id="img-db9c0bd9-168">
              <path d="M-0.29,-2.02 L 0.29 -2.02 0.29 2.02 -0.29 2.02 z" class="primitive"/>
            </g>
            <g transform="translate(168.97,79.77)" id="img-db9c0bd9-169">
              <path d="M-0.29,-0.55 L 0.29 -0.55 0.29 0.55 -0.29 0.55 z" class="primitive"/>
            </g>
            <g transform="translate(169.49,79.31)" id="img-db9c0bd9-170">
              <path d="M-0.29,-1.01 L 0.29 -1.01 0.29 1.01 -0.29 1.01 z" class="primitive"/>
            </g>
            <g transform="translate(170.02,79.4)" id="img-db9c0bd9-171">
              <path d="M-0.29,-0.92 L 0.29 -0.92 0.29 0.92 -0.29 0.92 z" class="primitive"/>
            </g>
            <g transform="translate(170.54,48.61)" id="img-db9c0bd9-172">
              <path d="M-0.29,-31.71 L 0.29 -31.71 0.29 31.71 -0.29 31.71 z" class="primitive"/>
            </g>
          </g>
        </g>
      </g>
    </g>
  </g>
  <g class="guide ylabels" font-size="2.82" font-family="'PT Sans Caption','Helvetica Neue','Helvetica',sans-serif" fill="#6C606B" id="img-db9c0bd9-173">
    <g transform="translate(11.02,80.32)" id="img-db9c0bd9-174">
      <g class="primitive">
        <text text-anchor="end" dy="0.35em">0</text>
      </g>
    </g>
    <g transform="translate(11.02,61.99)" id="img-db9c0bd9-175">
      <g class="primitive">
        <text text-anchor="end" dy="0.35em">100</text>
      </g>
    </g>
    <g transform="translate(11.02,43.66)" id="img-db9c0bd9-176">
      <g class="primitive">
        <text text-anchor="end" dy="0.35em">200</text>
      </g>
    </g>
    <g transform="translate(11.02,25.33)" id="img-db9c0bd9-177">
      <g class="primitive">
        <text text-anchor="end" dy="0.35em">300</text>
      </g>
    </g>
    <g transform="translate(11.02,7)" id="img-db9c0bd9-178">
      <g class="primitive">
        <text text-anchor="end" dy="0.35em">400</text>
      </g>
    </g>
  </g>
</g>
<defs>
  <clipPath id="img-db9c0bd9-4">
    <path d="M12.02,5 L 172.8 5 172.8 82.32 12.02 82.32" />
  </clipPath>
</defs>
</svg>
